<?xml version="1.0" encoding="UTF-8" standalone="no"?>
<!-- Created with Inkscape (http://www.inkscape.org/) -->

<svg
   xmlns:ns1="http://www.iki.fi/pav/software/textext/"
   xmlns:dc="http://purl.org/dc/elements/1.1/"
   xmlns:cc="http://creativecommons.org/ns#"
   xmlns:rdf="http://www.w3.org/1999/02/22-rdf-syntax-ns#"
   xmlns:svg="http://www.w3.org/2000/svg"
   xmlns="http://www.w3.org/2000/svg"
   xmlns:sodipodi="http://sodipodi.sourceforge.net/DTD/sodipodi-0.dtd"
   xmlns:inkscape="http://www.inkscape.org/namespaces/inkscape"
   width="16mm"
   height="12.110687mm"
   viewBox="0 0 16 12.110687"
   version="1.1"
   id="svg1660"
   inkscape:version="0.92.4 (5da689c313, 2019-01-14)"
   sodipodi:docname="inductor_with_latex_label.svg">
  <defs
     id="defs1654" />
  <sodipodi:namedview
     id="base"
     pagecolor="#ffffff"
     bordercolor="#666666"
     borderopacity="1.0"
     inkscape:pageopacity="0.0"
     inkscape:pageshadow="2"
     inkscape:zoom="7.9195959"
     inkscape:cx="10.246704"
     inkscape:cy="33.420962"
     inkscape:document-units="mm"
     inkscape:current-layer="layer1"
     showgrid="false"
     fit-margin-top="0"
     fit-margin-left="0"
     fit-margin-right="0"
     fit-margin-bottom="0"
     inkscape:window-width="1618"
     inkscape:window-height="1027"
     inkscape:window-x="1974"
     inkscape:window-y="22"
     inkscape:window-maximized="1" />
  <metadata
     id="metadata1657">
    <rdf:RDF>
      <cc:Work
         rdf:about="">
        <dc:format>image/svg+xml</dc:format>
        <dc:type
           rdf:resource="http://purl.org/dc/dcmitype/StillImage" />
        <dc:title></dc:title>
      </cc:Work>
    </rdf:RDF>
  </metadata>
  <g
     inkscape:label="Layer 1"
     inkscape:groupmode="layer"
     id="layer1"
     transform="translate(-119.46878,-255.80163)">
    <g
       id="g2315">
      <path
         sodipodi:nodetypes="ccscscscscscscscscscc"
         inkscape:connector-curvature="0"
         id="path1643"
         d="m 119.46878,265.66233 h 2 c 0,0 0,-2.5 1.5,-2.5 1.5,0 1.5,2.5 1.5,2.5 0,0 0,1.99999 -0.75,1.99999 -0.75,0 -0.75,-1.99999 -0.75,-1.99999 0,0 0,-2.5 2,-2.5 2,0 2,2.5 2,2.5 0,0 0,1.99999 -0.75,1.99999 -0.75,0 -0.75,-1.99999 -0.75,-1.99999 0,0 0,-2.50001 2,-2.50001 2,10e-6 2,2.50001 2,2.50001 0,0 0,1.99999 -0.75,1.99999 -0.75,0 -0.75,-1.99999 -0.75,-1.99999 0,0 0,-2.5 2,-2.5 2,0 2,2.5 2,2.5 0,0 0,1.99999 -0.75,1.99999 -0.75,0 -0.75,-1.99999 -0.75,-1.99999 0,0 0,-2.5 1.5,-2.5 1.5,0 1.5,2.5 1.5,2.5 h 2"
         style="opacity:1;vector-effect:none;fill:none;fill-opacity:1;stroke:#000000;stroke-width:0.5;stroke-linecap:butt;stroke-linejoin:miter;stroke-miterlimit:4;stroke-dasharray:none;stroke-dashoffset:0;stroke-opacity:1" />
      <g
         transform="matrix(0.70555599,0,0,0.70555599,18.862454,165.52398)"
         ns1:version="0.11.0"
         ns1:texconverter="pdflatex"
         ns1:pdfconverter="pdf2svg"
         ns1:text="$L_?$"
         ns1:preamble="C:\\Users\\M51321\\AppData\\Roaming\\inkscape\\extensions\\textext\\default_packages.tex"
         ns1:scale="1.99999997165"
         ns1:alignment="bottom center"
         ns1:jacobian_sqrt="0.705556"
         id="g2264">
        <g
           id="g2262">
          <g
             style="fill:#000000;fill-opacity:1"
             id="g2256">
            <path
               inkscape:connector-curvature="0"
               style="stroke:none;stroke-width:0"
               d="M 3.734375,-6.03125 C 3.8125,-6.390625 3.84375,-6.5 4.78125,-6.5 c 0.296875,0 0.375,0 0.375,-0.1875 0,-0.125 -0.109375,-0.125 -0.15625,-0.125 -0.328125,0 -1.140625,0.03125 -1.46875,0.03125 -0.296875,0 -1.03125,-0.03125 -1.328125,-0.03125 -0.0625,0 -0.1875,0 -0.1875,0.203125 0,0.109375 0.09375,0.109375 0.28125,0.109375 0.015625,0 0.203125,0 0.375,0.015625 0.171875,0.03125 0.265625,0.03125 0.265625,0.171875 0,0.03125 0,0.0625 -0.03125,0.1875 L 1.5625,-0.78125 c -0.09375,0.390625 -0.109375,0.46875 -0.90625,0.46875 -0.171875,0 -0.265625,0 -0.265625,0.203125 C 0.390625,0 0.484375,0 0.65625,0 h 4.625 C 5.515625,0 5.515625,0 5.578125,-0.171875 L 6.375,-2.328125 c 0.03125,-0.109375 0.03125,-0.125 0.03125,-0.140625 0,-0.03125 -0.03125,-0.109375 -0.109375,-0.109375 -0.09375,0 -0.109375,0.0625 -0.171875,0.21875 -0.34375,0.90625 -0.78125,2.046875 -2.5,2.046875 H 2.6875 c -0.140625,0 -0.171875,0 -0.21875,0 -0.109375,-0.015625 -0.140625,-0.03125 -0.140625,-0.109375 0,-0.03125 0,-0.046875 0.046875,-0.21875 z m 0,0"
               transform="translate(148.712,134.765)"
               id="path2254" />
          </g>
          <g
             style="fill:#000000;fill-opacity:1"
             id="g2260">
            <path
               inkscape:connector-curvature="0"
               style="stroke:none;stroke-width:0"
               d="m 1.890625,-1.78125 c 0,-0.609375 0.40625,-1.125 0.9375,-1.453125 0.125,-0.09375 0.4375,-0.3125 0.4375,-0.734375 0,-0.359375 -0.28125,-0.9375 -1.453125,-0.9375 -0.859375,0 -1.328125,0.453125 -1.328125,0.921875 0,0.296875 0.234375,0.359375 0.34375,0.359375 0.125,0 0.328125,-0.109375 0.328125,-0.34375 0,-0.03125 0,-0.296875 -0.328125,-0.328125 0.125,-0.1875 0.4375,-0.40625 0.953125,-0.40625 0.796875,0 0.84375,0.390625 0.84375,0.703125 0,0.375 -0.140625,0.515625 -0.25,0.609375 -0.46875,0.421875 -0.71875,1.03125 -0.71875,1.578125 v 0.28125 c 0,0.140625 0,0.171875 0.109375,0.171875 0.125,0 0.125,-0.046875 0.125,-0.1875 z m 0.28125,1.390625 c 0,-0.25 -0.203125,-0.40625 -0.40625,-0.40625 -0.234375,0 -0.40625,0.1875 -0.40625,0.390625 C 1.359375,-0.15625 1.5625,0 1.765625,0 2,0 2.171875,-0.1875 2.171875,-0.390625 Z m 0,0"
               transform="translate(155.492,136.259)"
               id="path2258" />
          </g>
        </g>
      </g>
    </g>
  </g>
</svg>
