<?xml version="1.0" encoding="UTF-8" standalone="no"?>
<!-- Created with Inkscape (http://www.inkscape.org/) -->

<svg
   xmlns:dc="http://purl.org/dc/elements/1.1/"
   xmlns:cc="http://creativecommons.org/ns#"
   xmlns:rdf="http://www.w3.org/1999/02/22-rdf-syntax-ns#"
   xmlns:svg="http://www.w3.org/2000/svg"
   xmlns="http://www.w3.org/2000/svg"
   xmlns:sodipodi="http://sodipodi.sourceforge.net/DTD/sodipodi-0.dtd"
   xmlns:inkscape="http://www.inkscape.org/namespaces/inkscape"
   width="16mm"
   height="5mm"
   viewBox="0 0 16 5"
   version="1.1"
   id="svg1660"
   sodipodi:docname="inductor.svg"
   inkscape:version="0.92.4 (5da689c313, 2019-01-14)">
  <defs
     id="defs1654" />
  <sodipodi:namedview
     id="base"
     pagecolor="#ffffff"
     bordercolor="#666666"
     borderopacity="1.0"
     inkscape:pageopacity="0.0"
     inkscape:pageshadow="2"
     inkscape:zoom="7.9195959"
     inkscape:cx="10.246704"
     inkscape:cy="33.420962"
     inkscape:document-units="mm"
     inkscape:current-layer="layer1"
     showgrid="false"
     fit-margin-top="0"
     fit-margin-left="0"
     fit-margin-right="0"
     fit-margin-bottom="0"
     inkscape:window-width="1618"
     inkscape:window-height="1027"
     inkscape:window-x="1974"
     inkscape:window-y="22"
     inkscape:window-maximized="1" />
  <metadata
     id="metadata1657">
    <rdf:RDF>
      <cc:Work
         rdf:about="">
        <dc:format>image/svg+xml</dc:format>
        <dc:type
           rdf:resource="http://purl.org/dc/dcmitype/StillImage" />
        <dc:title></dc:title>
      </cc:Work>
    </rdf:RDF>
  </metadata>
  <g
     inkscape:label="Layer 1"
     inkscape:groupmode="layer"
     id="layer1"
     transform="translate(-115.97619,-257.45833)">
    <g
       id="g2318">
      <path
         sodipodi:nodetypes="ccscscscscscscscscscc"
         inkscape:connector-curvature="0"
         id="path1643"
         d="m 115.97619,260.20834 h 2 c 0,0 0,-2.5 1.5,-2.5 1.5,0 1.5,2.5 1.5,2.5 0,0 0,1.99999 -0.75,1.99999 -0.75,0 -0.75,-1.99999 -0.75,-1.99999 0,0 0,-2.5 2,-2.5 2,0 2,2.5 2,2.5 0,0 0,1.99999 -0.75,1.99999 -0.75,0 -0.75,-1.99999 -0.75,-1.99999 0,0 0,-2.50001 2,-2.50001 2,1e-5 2,2.50001 2,2.50001 0,0 0,1.99999 -0.75,1.99999 -0.75,0 -0.75,-1.99999 -0.75,-1.99999 0,0 0,-2.5 2,-2.5 2,0 2,2.5 2,2.5 0,0 0,1.99999 -0.75,1.99999 -0.75,0 -0.75,-1.99999 -0.75,-1.99999 0,0 0,-2.5 1.5,-2.5 1.5,0 1.5,2.5 1.5,2.5 h 2"
         style="opacity:1;vector-effect:none;fill:none;fill-opacity:1;stroke:#000000;stroke-width:0.5;stroke-linecap:butt;stroke-linejoin:miter;stroke-miterlimit:4;stroke-dasharray:none;stroke-dashoffset:0;stroke-opacity:1" />
    </g>
  </g>
</svg>
